<svg width="17" height="16" viewBox="0 0 17 16" fill="none" xmlns="http://www.w3.org/2000/svg">
<path d="M12.5829 9.5969L16.0757 0.0296021L6.43252 3.44649L2.86377 0.940773L0.0543213 8.15421L4.98983 11.1155L7.87521 15.9751L15.0886 13.1657L12.5829 9.5969Z" fill="#5F8727"/>
<path opacity="0.3" d="M4.99011 11.1152L7.87548 15.9753L16.0763 0.0300903L0.0548096 8.15466L4.99011 11.1152Z" fill="white"/>
<path d="M11.9426 6.22004L12.55 6.82749L5.45047 13.927L4.84302 13.3196L11.9426 6.22004Z" fill="white"/>
<path d="M5.53517 6.70605L5.53502 10.2238L11.9136 3.84521L12.521 4.45266L5.08696 11.8867C4.96412 12.0096 5.1015 11.7241 4.94099 11.6576C4.78051 11.5912 4.6759 11.4346 4.6759 11.2609L4.6762 6.70605H5.53517Z" fill="white"/>
<path d="M7.79032 6.70604L7.79011 11.2609L6.93106 11.2608L6.93135 6.70604L7.79032 6.70604Z" fill="white"/>
<path d="M3.81715 6.70605L3.81693 11.2609L2.95789 11.2609L2.95818 6.70605H3.81715Z" fill="white"/>
</svg>
